<?xml version="1.0" encoding="UTF-8" standalone="no"?>
<!DOCTYPE svg PUBLIC "-//W3C//DTD SVG 1.1//EN" "http://www.w3.org/Graphics/SVG/1.1/DTD/svg11.dtd">
<svg width="100%" height="100%" viewBox="0 0 128 128" version="1.1" xmlns="http://www.w3.org/2000/svg" xmlns:xlink="http://www.w3.org/1999/xlink" xml:space="preserve" xmlns:serif="http://www.serif.com/" style="fill-rule:evenodd;clip-rule:evenodd;stroke-linejoin:round;stroke-miterlimit:1.41421;">
    <g id="SZE-Logo" serif:id="SZE Logo" transform="matrix(0.14899,0,0,0.276387,-0.60349,-9.11851)">
        <g transform="matrix(1.53774,0,0,0.82894,-5.54498,364.72)">
            <rect x="456.24" y="77.52" width="105.84" height="26.64" style="fill:rgb(73,171,198);"/>
        </g>
        <g transform="matrix(1.53774,0,0,0.82894,-5.54498,277.226)">
            <rect x="456.24" y="130.295" width="105.84" height="26.64" style="fill:rgb(73,171,198);"/>
        </g>
        <g transform="matrix(1.53774,0,0,0.82894,-5.54498,189.332)">
            <rect x="456.24" y="183.311" width="105.84" height="26.64" style="fill:rgb(73,171,198);"/>
        </g>
        <g transform="matrix(1.53774,0,0,0.82894,-5.54498,101.837)">
            <rect x="456.24" y="236.086" width="105.84" height="26.64" style="fill:rgb(73,171,198);"/>
        </g>
        <g transform="matrix(1.53774,0,0,0.82894,-5.54498,13.9428)">
            <rect x="456.24" y="289.102" width="105.84" height="26.64" style="fill:rgb(73,171,198);"/>
        </g>
        <g transform="matrix(1.53774,0,0,0.82894,-5.54498,-73.5518)">
            <rect x="456.24" y="341.877" width="105.84" height="26.64" style="fill:rgb(73,171,198);"/>
        </g>
        <g transform="matrix(1.53774,0,0,0.82894,-5.54498,-161.446)">
            <rect x="456.24" y="394.893" width="105.84" height="26.64" style="fill:rgb(73,171,198);"/>
        </g>
        <g transform="matrix(1.53774,0,0,0.82894,-5.54498,-249.338)">
            <rect x="456.24" y="447.908" width="105.84" height="26.64" style="fill:rgb(73,171,198);"/>
        </g>
        <g transform="matrix(1.53774,0,0,0.82894,-5.54498,-337.16)">
            <rect x="456.24" y="500.88" width="105.84" height="26.64" style="fill:rgb(73,171,198);"/>
        </g>
        <g transform="matrix(1.53774,0,0,0.82894,-5.54498,189.25)">
            <rect x="6.24" y="183.36" width="396.96" height="26.64" style="fill:rgb(73,171,198);"/>
        </g>
        <g transform="matrix(1.53774,0,0,0.82894,-5.54498,364.72)">
            <rect x="6.24" y="77.52" width="396.96" height="26.64" style="fill:rgb(73,171,198);"/>
        </g>
        <g transform="matrix(1.53774,0,0,0.82894,-5.54498,277.226)">
            <rect x="111.12" y="130.295" width="292.08" height="26.64" style="fill:white;"/>
        </g>
        <g transform="matrix(-1.03454,-0.613297,-1.13771,0.557681,1091.74,143.698)">
            <path d="M267.406,176.339C148.53,284.435 139.778,468.705 247.874,587.581L267.406,569.82C169.113,461.725 177.072,294.164 285.167,195.871L267.406,176.339Z" style="fill:rgb(73,171,198);"/>
        </g>
        <g transform="matrix(-1.02119,-0.619764,-1.14971,0.550485,1055.68,95.3343)">
            <path d="M241.199,240.137C142.858,327.485 133.933,478.242 221.281,576.583L241.199,558.892C163.615,471.544 171.542,337.639 258.89,260.054L241.199,240.137Z" style="fill:rgb(73,171,198);"/>
        </g>
    </g>
</svg>
